<svg xmlns="http://www.w3.org/2000/svg" xmlns:xlink="http://www.w3.org/1999/xlink" viewBox="0 0 355.31 85.39"><defs><style>.cls-1{fill:#fff;fill-rule:evenodd;}.cls-2{mask:url(#mask);}.cls-3{mask:url(#mask-2-2);}</style><mask id="mask" x="160.06" y="14.12" width="195.26" height="18.81" maskUnits="userSpaceOnUse"><g id="mask-2"><polygon id="path-1" class="cls-1" points="160.06 14.12 355.31 14.12 355.31 32.93 160.06 32.93 160.06 14.12"/></g></mask><mask id="mask-2-2" x="0" y="0" width="145.67" height="85.39" maskUnits="userSpaceOnUse"><g id="mask-4"><polygon id="path-3" class="cls-1" points="0 0 145.67 0 145.67 85.39 0 85.39 0 0"/></g></mask></defs><g id="Layer_2" data-name="Layer 2"><g id="Layer_1-2" data-name="Layer 1"><g id="Page-1"><g id="Desktop-HD"><g id="Group-9"><g id="Group-3"><g class="cls-2"><path id="Fill-1" class="cls-1" d="M337.29,32.52l.89-8.45c0-.12,0-.26,0-.44s0-.34,0-.52v-.44h.19a5.3,5.3,0,0,0,.12,1c.06.31.14.62.23.94l2.4,7.88H345l2.67-8.34c0-.12.07-.27.12-.44s.09-.36.13-.55.07-.36.1-.52h.11c0,.25,0,.47,0,.66a4.91,4.91,0,0,0,0,.55c0,.18,0,.37,0,.57l.82,8.07h6.28l-2.94-18h-6.66l-2.11,7.37c-.07.25-.13.48-.18.7s-.09.44-.12.66,0,.46-.05.72h-.16c0-.09,0-.23-.06-.44s-.07-.45-.13-.74-.13-.58-.22-.9l-2.1-7.37h-6.72l-2.92,18ZM311.41,26a8,8,0,0,0,.11,1.42,5.92,5.92,0,0,0,1.53,3.11,6.6,6.6,0,0,0,1.68,1.31,8.36,8.36,0,0,0,1.82.71,11.77,11.77,0,0,0,1.74.3c.55,0,1,.06,1.45.06a14.67,14.67,0,0,0,1.59-.09,10.29,10.29,0,0,0,1.69-.33,7.1,7.1,0,0,0,1.65-.68,6.92,6.92,0,0,0,1.5-1.14,6.57,6.57,0,0,0,1.21-1.77,7,7,0,0,0,.54-1.78,9.32,9.32,0,0,0,.14-1.58v-11h-6.51V25a4.08,4.08,0,0,1,0,.58,2.85,2.85,0,0,1-.12.7,1.38,1.38,0,0,1-.35.6,1.18,1.18,0,0,1-.49.31,2.67,2.67,0,0,1-.83.13,2.57,2.57,0,0,1-.7-.1,1.42,1.42,0,0,1-.59-.39,1.91,1.91,0,0,1-.38-.59,3.09,3.09,0,0,1-.16-.65c0-.21,0-.41,0-.59V14.52h-6.47Zm-10.16,6.5h6.54v-18h-6.54ZM288.44,19.46h1.13a1.4,1.4,0,0,1,.68.15,1.51,1.51,0,0,1,.43.34,1.22,1.22,0,0,1,.26.49A1.9,1.9,0,0,1,291,21a1.55,1.55,0,0,1-.15.7,1.41,1.41,0,0,1-.31.41,1.36,1.36,0,0,1-.45.26,2.33,2.33,0,0,1-.49.12l-.44,0h-.75Zm0,13.06V26.75l.11-.06a2,2,0,0,0,.12.33l.12.24,2.59,5.26h7.53l-4.05-6.07a2,2,0,0,0-.43-.49,2.89,2.89,0,0,0-.51-.35v-.16a4.71,4.71,0,0,0,1.43-.54,4,4,0,0,0,1-.89,3.87,3.87,0,0,0,.48-.75,4.11,4.11,0,0,0,.37-1.06,6.39,6.39,0,0,0,.15-1.4,7.17,7.17,0,0,0-.24-1.89,5.88,5.88,0,0,0-.61-1.46,6.24,6.24,0,0,0-.85-1.08A5.89,5.89,0,0,0,294,15.17a6.66,6.66,0,0,0-1.86-.53,12.25,12.25,0,0,0-1.91-.12h-8.12v18Zm-17.68-10L271.6,26H269l.89-3.46c.08-.32.15-.64.2-1s.08-.68.1-1.05h.24q.06.48.15,1c.05.34.12.68.2,1Zm2,7.72.59,2.24h6.94l-6.42-18h-7.23l-6.24,18h6.91l.48-2.24Zm-15.35,2.24V20.21l3.61.17V14.52H247.28v5.86l3.67-.17V32.52Zm-23.86,0V26.39c0-.2,0-.44,0-.72s0-.57-.09-.88-.09-.6-.13-.9-.1-.57-.14-.81h.18l.39.8c.14.27.28.55.43.81s.29.52.42.73l4.48,7.1h6.26v-18H239v5.72q0,.68.09,1.44c.06.51.13,1,.22,1.51s.17.93.26,1.32h-.19c-.19-.47-.38-.87-.55-1.21s-.36-.67-.54-1-.38-.65-.61-1l-4.18-6.8h-6.23v18Zm-9,0V27.58H218.7V25.85h5.1V21.13h-5.1V19.46h5.62V14.52H212.17v18Zm-22.46,0h6.53v-18H202ZM189.2,19.46h1.14a1.42,1.42,0,0,1,.68.15,1.45,1.45,0,0,1,.42.34,1.13,1.13,0,0,1,.27.49,1.9,1.9,0,0,1,.09.58,1.69,1.69,0,0,1-.15.7,1.28,1.28,0,0,1-.77.67,2.11,2.11,0,0,1-.48.12l-.44,0h-.76Zm0,13.06V26.75l.11-.06a2,2,0,0,0,.12.33l.13.24,2.59,5.26h7.53l-4.05-6.07a2.26,2.26,0,0,0-.43-.49,3.38,3.38,0,0,0-.52-.35v-.16a4.67,4.67,0,0,0,1.44-.54,4,4,0,0,0,1-.89,4.41,4.41,0,0,0,.48-.75,4.53,4.53,0,0,0,.37-1.06,6.39,6.39,0,0,0,.15-1.4,7.61,7.61,0,0,0-.24-1.89,5.89,5.89,0,0,0-.62-1.46,5.76,5.76,0,0,0-.84-1.08,6,6,0,0,0-1.74-1.21,6.63,6.63,0,0,0-1.87-.53,12.12,12.12,0,0,0-1.9-.12h-8.12v18Zm-19.15-12.6a3.42,3.42,0,0,1,1,.13,3.05,3.05,0,0,1,.78.33,2.74,2.74,0,0,1,.58.46,3.08,3.08,0,0,1,.76,1.15,4.2,4.2,0,0,1,.27,1.55,4.3,4.3,0,0,1-.29,1.53,3.57,3.57,0,0,1-.74,1.14,3.11,3.11,0,0,1-1,.66,3.74,3.74,0,0,1-2.69,0,3.11,3.11,0,0,1-1-.66,3.46,3.46,0,0,1-.76-1.2,4.11,4.11,0,0,1-.15-2.45,4.23,4.23,0,0,1,.35-.94,3.69,3.69,0,0,1,.56-.78,2.2,2.2,0,0,1,.54-.44,2.52,2.52,0,0,1,.78-.34,3.56,3.56,0,0,1,1-.14Zm10,3.59a10,10,0,0,0-.34-2.64,8.91,8.91,0,0,0-.9-2.18A8.21,8.21,0,0,0,177.52,17a8.66,8.66,0,0,0-1.86-1.44,10,10,0,0,0-2.49-1,12.41,12.41,0,0,0-6.25,0,10,10,0,0,0-2.49,1A8.66,8.66,0,0,0,162.57,17a8.21,8.21,0,0,0-1.27,1.69,8.91,8.91,0,0,0-.9,2.18,10.46,10.46,0,0,0,0,5.29,8.67,8.67,0,0,0,.9,2.19A8.21,8.21,0,0,0,162.57,30a9.34,9.34,0,0,0,1.86,1.44,10.42,10.42,0,0,0,2.49,1.05,12.41,12.41,0,0,0,6.25,0,10.42,10.42,0,0,0,2.49-1.05A9.34,9.34,0,0,0,177.52,30a8.21,8.21,0,0,0,1.27-1.69,8.67,8.67,0,0,0,.9-2.19,10,10,0,0,0,.34-2.65Z"/></g></g><path id="Fill-4" class="cls-1" d="M161.82,53.64h7.05a6.23,6.23,0,0,0,1.77-.37l.07.15a15.47,15.47,0,0,0-2,2.65l-9.08,14.66h23.85V63.16h-7.79l-1.69.15-.07-.15a10.63,10.63,0,0,0,1.36-1.8l9.3-15.14H161.82Zm50.92,4.82a12.48,12.48,0,0,0-3.41-8.86,15.15,15.15,0,0,0-20.36,0,12.48,12.48,0,0,0-3.41,8.86A12.5,12.5,0,0,0,189,67.35a15.15,15.15,0,0,0,20.36,0,12.5,12.5,0,0,0,3.41-8.89Zm-13.59-4.89a4.41,4.41,0,0,1,3.2,1.25,5,5,0,0,1,1.4,3.67,5.11,5.11,0,0,1-1.4,3.64,4.72,4.72,0,0,1-6.4,0,5.21,5.21,0,0,1-1.39-3.64A5.5,5.5,0,0,1,196,54.82a4.24,4.24,0,0,1,3.2-1.25Zm44.24,4.89A12.48,12.48,0,0,0,240,49.6a15.14,15.14,0,0,0-20.35,0,13.23,13.23,0,0,0,0,17.75,15.14,15.14,0,0,0,20.35,0,12.5,12.5,0,0,0,3.42-8.89ZM229.8,53.57a4.42,4.42,0,0,1,3.2,1.25,5,5,0,0,1,1.39,3.67A5.15,5.15,0,0,1,233,62.13a4.72,4.72,0,0,1-6.4,0,5.21,5.21,0,0,1-1.4-3.64,5.51,5.51,0,0,1,1.4-3.67,4.24,4.24,0,0,1,3.2-1.25Zm43.43,17.16v-7.9h-7.5V58.94l4.19-2.69v-6L265.73,53V46.22h-8.88V56.33l-3.16,2V64.3l3.16-2v8.45ZM302.3,58.46a12.48,12.48,0,0,0-3.42-8.86,15.15,15.15,0,0,0-20.36,0,12.48,12.48,0,0,0-3.41,8.86,12.5,12.5,0,0,0,3.41,8.89,15.15,15.15,0,0,0,20.36,0,12.5,12.5,0,0,0,3.42-8.89Zm-13.6-4.89a4.41,4.41,0,0,1,3.2,1.25,4.94,4.94,0,0,1,1.4,3.67,5.11,5.11,0,0,1-1.4,3.64,4.72,4.72,0,0,1-6.4,0,5.21,5.21,0,0,1-1.39-3.64,5.5,5.5,0,0,1,1.39-3.67,4.24,4.24,0,0,1,3.2-1.25ZM286,42.1l3.2,2,5.36-4.7-4.3-2.68Zm31.75,28.63a12.05,12.05,0,0,0,8.78-3.45,11.49,11.49,0,0,0,3.16-8.49,12,12,0,0,0-3.31-8.86c-3.56-3.52-8.78-3.71-10.84-3.71h-9.44V70.73Zm-2.83-17h.95a5.05,5.05,0,0,1,3.5,1.17,5.12,5.12,0,0,1,1.43,3.68,4.66,4.66,0,0,1-1.43,3.53,5.41,5.41,0,0,1-3.79,1.14h-.66Zm17.34-.08h7.06a6.09,6.09,0,0,0,1.76-.37l.08.15a15.47,15.47,0,0,0-1.95,2.65l-9.08,14.66H354V63.16h-7.79l-1.69.15-.07-.15a10.63,10.63,0,0,0,1.36-1.8l9.29-15.14H332.28Zm5.63-11.54,3.19,2,5.37-4.7-4.3-2.68Z"/><g id="Group-8"><g class="cls-3"><path id="Fill-6" class="cls-1" d="M100.88,61l.17.26a49.72,49.72,0,0,0,3.59,5.27,56.59,56.59,0,0,0,22,16.14c.79.32,1.56.61,2.33.89V75.72a48.47,48.47,0,0,1-10.63-6.15,51.38,51.38,0,0,1-8.73-8.71h0l7.65-.09a14.83,14.83,0,0,0,2.67,3.61,15.13,15.13,0,0,0,25.81-10h0c0-.13,0-.25,0-.37s0-.24,0-.36h0a15.12,15.12,0,0,0-15.11-14.4h0v7.16h0a8,8,0,0,1,8,7.6,8,8,0,0,1-15.29,2.78,15.4,15.4,0,0,1-.44-3.42V45.64c0-.17,0-.34,0-.51h0V25.43c0-6.34-2.7-14.17-8.26-19.23-5.14-4.68-10.28-6.2-17-6.2h-36C50.21.07,38.87.05,27.8.31,19.14.32,12.61,3.12,8.08,7.24,2.64,12.19,0,19.86,0,26.05v3.83H0c0,11.46,0,44.56,0,55.51l13.34,0,0-.14h7.9a26.33,26.33,0,1,1,52.65,0H92.74V52.12a45.62,45.62,0,0,1-17.58-7.83A43,43,0,0,1,59.52,21h5a38.67,38.67,0,0,0,9.63,16c4.43,4.42,13.94,10.4,20.3,10.56h6.5l0,12V61Zm8.64-23.1h6v-6h-6ZM59.4,13.61H83.71c3.15.15,5.41.91,6.87,2.2a7.57,7.57,0,0,1,2.25,5.32V30.3h4.92V21a12.32,12.32,0,0,0-3.9-8.85c-2.32-2.06-5.63-3.24-10-3.43H59.4Z"/></g></g></g></g></g></g></g></svg>